# xmcd
# Track frame offsets:
# 150
# 12968
# 29465
# 44065
# 59508
# 77988
# 91553
# 107613
# 120728
# 134290
#
# Disc length: 1977 seconds
# Revision: 0
# Processed by: cddbd v1.4PL0 Copyright (c) Steve Scherf et al.
# Submitted via: VisiTrax 2.9.5.181 - For more info visit www.synapsa.com
#
DISCID=8007b70a
DTITLE=Teresa Langworthy - What Goes On
DYEAR=1994
DGENRE=Country
TTITLE0=(Turn Out The Lights And) Love Me Tonight
TTITLE1=If I Was A Hotel
TTITLE2=Memphis Might As Well Be The Moon
TTITLE3=Last Drink Of Wine
TTITLE4=Always On My Mind
TTITLE5=What Goes On
TTITLE6=Don't Worry
TTITLE7=Could You Love Me One More Time
TTITLE8=Sunshine
TTITLE9=Cry
EXTD=
EXTT0=
EXTT1=
EXTT2=
EXTT3=
EXTT4=
EXTT5=
EXTT6=
EXTT7=
EXTT8=
EXTT9=
PLAYORDER=
